#N canvas 1916 1033 1920 997 12;
#X obj 638 116 openpanel;
#X symbolatom 638 140 50 0 0 0 - - - 0;
#X obj 638 267 soundfiler;
#X floatatom 638 298 20 0 0 0 - - - 0;
#X obj 638 321 / 44100;
#X floatatom 638 345 20 0 0 0 - - - 0;
#X obj 638 90 bng 15 250 50 0 empty \$0-load_sample empty 17 7 0 10 #fcfcfc #000000 #000000;
#X obj 1275 560 hsl 128 15 0 1 0 0 empty empty empty -2 -8 0 10 #fcfcfc #000000 #000000 0 1;
#X obj 1272 677 *~;
#X obj 728 957 *~;
#X obj 728 886 phasor~;
#X floatatom 728 700 10 0 0 1 Frecuencia\ del\ phasor - - 0;
#X obj 728 570 bng 15 250 50 0 empty empty empty 17 7 0 10 #fcfcfc #000000 #000000;
#X obj 728 671 *, f 5;
#X floatatom 728 522 5 0 0 1 Rate - - 12;
#X obj 571 905 snapshot~;
#X obj 571 881 metro 11;
#X obj 571 860 tgl 15 0 empty empty empty 17 7 0 10 #fcfcfc #000000 #000000 0 1;
#X obj 1272 604 line~;
#X obj 958 1058 bng 15 250 50 0 empty empty empty 17 7 0 10 #fcfcfc #000000 #000000;
#X obj 958 905 *~ 10000;
#X obj 958 1127 spigot;
#X obj 997 1063 tgl 30 0 empty \$0-loop Loop 33 14 0 14 #ffc7c6 #000000 #000000 0 1;
#X msg 1272 580 \$1 200;
#X obj 728 623 expr 1/$f1;
#X obj 728 592 f;
#X floatatom 728 647 10 0 0 0 - - - 0;
#X msg 958 1153 0;
#X obj 997 1098 expr ($f1 * -1) + 1;
#X obj 728 545 t b f;
#X obj 728 723 t f f;
#X obj 958 930 threshold~ 9997 0 9997 0;
#X floatatom 958 790 5 0 0 0 - - - 0;
#X obj 958 885 bng 15 250 50 0 empty empty empty 17 7 0 10 #fcfcfc #000000 #000000;
#X obj 958 812 threshold~ 0 0 0 0;
#X obj 978 861 threshold~ 0 0 0 0;
#X obj 978 836 * -1;
#X obj 978 885 bng 15 250 50 0 empty empty empty 17 7 0 10 #fcfcfc #000000 #000000;
#X msg 1189 921 0;
#X obj 1157 900 t b b;
#X obj 1157 943 del 1;
#X msg 1157 967 1;
#X obj 1157 991 f;
#X obj 958 742 spigot;
#X obj 958 1010 spigot;
#X obj -90 118 cnv 19 126 76 empty empty empty 20 12 0 12 #e0e0e0 #404040 0;
#N canvas 0 50 450 250 (subpatch) 0;
#X array \$0-samplefile-array 43921 float 2;
#X coords 0 1 43921 -1 144 40 1 2 2;
#X restore 106 189 graph;
#X obj 106 248 tgl 10 0 \$0-play \$0-play_status play/pause 14 4 0 8 #c4fcc4 #000000 #000000 0 1;
#X obj 119 295 hsl 116 11 -1 1 0 0 \$0-rate \$0-rate_status rate_(-1:1) 2 6 0 8 #fcfcc4 #000000 #000000 0 1;
#X obj 109 229 hsl 139 12 0 1 0 0 empty \$0-sample_follow empty -2 -8 0 10 #fcfcfc #000000 #000000 0 1;
#X symbolatom 106 154 20 0 0 2 Filename: \$0-filename - 0;
#X obj 237 295 bng 11 250 50 0 \$0-rate_1 empty empty 17 7 0 10 #fcfcfc #000000 #000000;
#X obj 105 295 bng 11 250 50 0 \$0-rate_negative_1 empty empty 17 7 0 10 #fcfcfc #000000 #000000;
#X obj 212 175 bng 10 250 50 0 \$0-normalize empty norm. 12 5 0 10 #fcfcfc #000000 #000000;
#X obj 119 310 hsl 116 11 -1 1 0 0 \$0-panning \$0-panning_status panning_(-1:1) 2 6 0 8 #c4fcfc #000000 #000000 0 1;
#X obj 119 280 hsl 125 12 0 1 0 0 \$0-volume \$0-volume_status volume_(0:1) 2 6 0 8 #fce0c4 #000000 #000000 0 1;
#X obj 237 310 bng 11 250 50 0 \$0-center_panning empty c 12 5 0 10 #fcfcfc #000000 #000000;
#X obj 106 258 tgl 10 0 \$0-loop \$0-loop_status loop 14 4 0 8 #fcfcfc #000000 #000000 0 1;
#X floatatom 216 248 4 0 0 3 sec. \$0-sample_duration - 0;
#X obj 171 248 bng 10 250 50 0 \$0-stop \$0-stop_status stop 12 5 0 8 #c4fcc4 #000000 #000000;
#X obj 171 257 bng 10 250 50 0 \$0-replay \$0-replay_status replay 12 5 0 8 #c4fcc4 #000000 #000000;
#X obj 208 135 bng 15 250 50 0 \$0-reset $-reset_status reset 17 7 0 10 #fcfcfc #000000 #000000;
#X msg 638 243 read -resize \$1 \$2-samplefile-array;
#X obj 691 187 \$0;
#X obj 638 163 t s b, f 8;
#X obj 1272 710 tabread4~ \$0-samplefile-array;
#X obj 728 1047 tabread4~ \$0-samplefile-array;
#X obj 788 316 s \$0-sample_size;
#X obj 788 363 s \$0-sample_duration;
#X obj 1290 644 r \$0-sample_size;
#X obj 760 573 r \$0-sample_duration;
#X obj 571 929 s \$0-sample_follow;
#X obj 746 932 r \$0-sample_size;
#X obj 728 1356 *~;
#X obj 928 1255 vsl 15 50 0 1 0 0 empty empty Volume 20 30 0 14 #fcfcc4 #000000 #000000 0 1;
#X msg 928 1313 \$1 50;
#X obj 928 1337 line~;
#X obj 638 503 r \$0-rate;
#X obj 968 1234 r \$0-volume;
#X obj 958 766 expr if($f1 >= 0 \, 1 \, -1);
#X obj 675 758 tgl 30 0 empty \$0-play PLAY 1 14 0 12 #c6ffc7 #000000 #000000 0 1;
#X msg 958 1181 \$1 10;
#X obj 958 1205 line;
#X obj 728 788 *, f 10;
#X floatatom 728 812 10 0 0 0 - - - 0;
#N canvas 953 0 958 988 panning 0;
#X obj 205 224 *~;
#X obj 293 224 *~;
#X obj 122 123 vsl 15 50 0 1 0 0 empty empty empty 0 -9 0 10 #fcfcc4 #000000 #000000 0 1;
#X msg 122 181 \$1 50;
#X obj 122 205 line~;
#X obj 205 285 clip~ -1 1;
#X obj 205 261 hip~ 100;
#X obj 382 123 vsl 15 50 0 1 0 0 empty empty empty 0 -9 0 10 #fcfcc4 #000000 #000000 0 1;
#X msg 382 181 \$1 50;
#X obj 382 205 line~;
#X obj 293 285 clip~ -1 1;
#X obj 293 261 hip~ 100;
#X obj 224 -11 hsl 100 15 0 3.1416 0 0 empty pan.cos empty -2 -8 0 10 #c4fcfc #000000 #000000 0 1;
#X obj 221 9 cos;
#X obj 221 54 + 1;
#X obj 221 78 / 2;
#X obj 339 28 * -1;
#X obj 339 52 + 1;
#X obj 339 76 / 2;
#X obj 221 102 sqrt;
#X obj 339 102 sqrt;
#X obj 205 -51 inlet~;
#X obj 205 200 *~ 1, f 13;
#X obj 305 -51 inlet, f 6;
#X obj 205 309 outlet~;
#X obj 293 309 outlet~;
#X connect 0 0 6 0;
#X connect 1 0 11 0;
#X connect 2 0 3 0;
#X connect 3 0 4 0;
#X connect 4 0 0 1;
#X connect 5 0 24 0;
#X connect 6 0 5 0;
#X connect 7 0 8 0;
#X connect 8 0 9 0;
#X connect 9 0 1 1;
#X connect 10 0 25 0;
#X connect 11 0 10 0;
#X connect 12 0 13 0;
#X connect 13 0 14 0;
#X connect 13 0 16 0;
#X connect 14 0 15 0;
#X connect 15 0 19 0;
#X connect 16 0 17 0;
#X connect 17 0 18 0;
#X connect 18 0 20 0;
#X connect 19 0 2 0;
#X connect 20 0 7 0;
#X connect 21 0 22 0;
#X connect 22 0 0 0;
#X connect 22 0 1 0;
#X connect 23 0 12 0;
#X restore 728 1517 pd panning;
#X obj 798 1400 hsl 100 15 -1 1 0 0 empty \$0-panning Paneo -3 -9 0 14 #c6feff #000000 #000000 0 1;
#X obj 795 1484 * 3.1416;
#X obj 638 213 pack s f;
#X obj 571 833 loadbang;
#X obj 728 747 t b f, f 10;
#X obj 795 1425 + 1;
#X obj 795 1455 / 2;
#X obj 1272 812 cyclone/edge~;
#X obj 774 843 r \$0-restart_phasor;
#X obj 546 981 r \$0-restart_tabread4;
#X obj 546 1029 sig~;
#X obj 1018 1172 s \$0-play_status;
#X obj 100 621 soundfiler;
#X floatatom 100 652 10 0 0 0 - - - 0;
#X text 167 652 tama침o en muestras;
#X text 120 576 cargar muestras a la tabla;
#X obj 100 524 symbol;
#X obj 100 739 /;
#X obj 100 555 pack s \$0;
#X obj 100 492 r samplefile-name-\$1;
#X msg 100 591 read -resize \$1 \$2-samplefile-array;
#X obj 100 763 s \$0-sample_duration;
#X obj 118 714 r \$0-sample_size;
#X obj 100 682 s \$0-sample_size;
#X obj 100 853 bng 19 250 50 0 empty empty empty 0 -10 0 12 #fcfcfc #000000 #000000;
#X floatatom 100 901 5 0 0 0 - - - 0;
#X obj 106 104 bng 30 250 50 0 \$0-load_sample empty Load\ Sample 40 16 0 12 #c6ffc7 #000000 #000000;
#X obj 728 1599 throw~ sample_out-L;
#X obj 795 1569 throw~ sample_out-R;
#X obj 100 47 loadbang;
#X obj 728 843 sig~;
#X obj 100 71 s \$0-reset;
#X obj 100 877 \$0;
#X text 100 472 Carga los 8 samples autom치ticamente (en proceso).;
#X text 100 832 Obtiene el identificador de la instancia (\$0).;
#X text 639 472 Flujo de reproducci칩n del sample.;
#X text 639 62 Flujo de carga del sample.;
#X text 1269 472 Por implementar:;
#X text 1269 532 Scratch de sample.;
#X obj 772 158 split_filename.abs;
#X obj 895 182 s \$0-filename;
#X text 1269 788 Explorar este objeto como posible reemplazo de [threshold~].;
#X msg 546 1005 1;
#N canvas 953 0 958 988 buttons_configuration 0;
#X msg -259 241 \; \$1-samplefile-array normalize;
#X obj -259 213 \$0;
#X obj -259 186 r \$0-normalize;
#X obj 22 39 r \$0-stop, f 16;
#X obj 76 155 s \$0-restart_tabread_4;
#X obj 22 185 s \$0-restart_phasor;
#X msg 131 94 0;
#X obj 131 125 s \$0-play_status;
#X obj -259 39 r \$0-reset;
#X obj -259 63 \$0;
#X obj 22 64 t b b b, f 16;
#X obj 131 367 s \$0-restart_tabread_4;
#X obj 76 401 s \$0-restart_phasor;
#X obj 22 235 r \$0-replay, f 16;
#X obj -259 338 \$0;
#X obj -259 314 r \$0-center_panning;
#X msg -259 362 \; \$1-panning_status 0;
#X obj -259 428 \$0;
#X obj -259 404 r \$0-rate_1;
#X msg -259 452 \; \$1-rate_status 1;
#X obj -259 538 \$0;
#X obj -259 514 r \$0-rate_negative_1;
#X msg -259 562 \; \$1-rate_status -1;
#X msg -259 87 \; \$1-loop_status 0 \; \$1-volume_status 0.5 \; \$1-rate_status 1 \; \$1-panning_status 0;
#X obj 94 299 r \$0-rate_status;
#X obj 94 323 expr if($f1 >= 0 \, 0 \, 1);
#X obj 76 346 f;
#X obj 22 426 s \$0-play_status;
#X msg 22 346 1;
#X obj 22 265 t b b b, f 16;
#X connect 1 0 0 0;
#X connect 2 0 1 0;
#X connect 3 0 10 0;
#X connect 6 0 7 0;
#X connect 8 0 9 0;
#X connect 9 0 23 0;
#X connect 10 0 5 0;
#X connect 10 1 4 0;
#X connect 10 2 6 0;
#X connect 13 0 29 0;
#X connect 14 0 16 0;
#X connect 15 0 14 0;
#X connect 17 0 19 0;
#X connect 18 0 17 0;
#X connect 20 0 22 0;
#X connect 21 0 20 0;
#X connect 24 0 25 0;
#X connect 25 0 26 1;
#X connect 26 0 12 0;
#X connect 28 0 27 0;
#X connect 29 0 28 0;
#X connect 29 1 26 0;
#X connect 29 2 11 0;
#X restore 100 392 pd buttons_configuration;
#X text 100 372 Configuraci칩n de los botones.;
#X obj 1189 213 samphold~;
#X floatatom 1188 159 5 0 0 0 - - - 0;
#X obj 1188 182 sig~;
#X obj 1188 281 snapshot~ 21;
#X floatatom 1188 305 5 0 0 0 - - - 0;
#X floatatom 1248 159 5 0 0 0 - - - 0;
#X obj 1114 238 tgl 19 0 empty empty empty 0 -10 0 12 #fcfcfc #000000 #000000 0 1;
#X obj 1114 262 metro 21;
#X obj 1248 182 phasor~;
#X obj 638 394 s \$0-init_bang;
#X obj 638 368 bng 19 250 50 0 empty empty empty 0 -10 0 12 #fcfcfc #000000 #000000;
#X connect 0 0 1 0;
#X connect 1 0 64 0;
#X connect 1 0 125 0;
#X connect 2 0 3 0;
#X connect 3 0 4 0;
#X connect 3 0 67 0;
#X connect 4 0 5 0;
#X connect 5 0 68 0;
#X connect 5 0 141 0;
#X connect 6 0 0 0;
#X connect 7 0 23 0;
#X connect 8 0 65 0;
#X connect 9 0 66 0;
#X connect 10 0 9 0;
#X connect 10 0 15 0;
#X connect 10 0 20 0;
#X connect 11 0 30 0;
#X connect 12 0 25 0;
#X connect 13 0 11 0;
#X connect 14 0 29 0;
#X connect 15 0 71 0;
#X connect 16 0 15 0;
#X connect 17 0 16 0;
#X connect 18 0 8 0;
#X connect 19 0 21 0;
#X connect 20 0 31 0;
#X connect 21 0 27 0;
#X connect 22 0 28 0;
#X connect 23 0 18 0;
#X connect 24 0 26 0;
#X connect 25 0 24 0;
#X connect 26 0 13 0;
#X connect 27 0 81 0;
#X connect 27 0 97 0;
#X connect 28 0 21 1;
#X connect 28 0 43 1;
#X connect 29 0 12 0;
#X connect 29 1 13 1;
#X connect 30 0 90 0;
#X connect 30 1 43 0;
#X connect 31 0 44 0;
#X connect 32 0 34 0;
#X connect 32 0 36 0;
#X connect 33 0 39 0;
#X connect 34 0 33 0;
#X connect 35 0 37 0;
#X connect 36 0 35 0;
#X connect 37 0 39 0;
#X connect 38 0 42 0;
#X connect 39 0 40 0;
#X connect 39 1 38 0;
#X connect 40 0 41 0;
#X connect 41 0 42 0;
#X connect 42 0 44 1;
#X connect 43 0 79 0;
#X connect 44 0 19 0;
#X connect 62 0 2 0;
#X connect 63 0 88 1;
#X connect 64 0 88 0;
#X connect 64 1 63 0;
#X connect 66 0 73 0;
#X connect 69 0 8 1;
#X connect 70 0 25 1;
#X connect 72 0 9 1;
#X connect 73 0 85 0;
#X connect 74 0 75 0;
#X connect 75 0 76 0;
#X connect 76 0 73 1;
#X connect 77 0 14 0;
#X connect 78 0 74 0;
#X connect 79 0 32 0;
#X connect 80 0 83 0;
#X connect 81 0 82 0;
#X connect 82 0 10 0;
#X connect 83 0 84 0;
#X connect 84 0 116 0;
#X connect 85 0 113 0;
#X connect 85 1 114 0;
#X connect 86 0 91 0;
#X connect 87 0 85 1;
#X connect 88 0 62 0;
#X connect 89 0 17 0;
#X connect 90 0 83 0;
#X connect 90 1 83 1;
#X connect 91 0 92 0;
#X connect 92 0 87 0;
#X connect 94 0 10 1;
#X connect 95 0 128 0;
#X connect 96 0 66 0;
#X connect 98 0 99 0;
#X connect 99 0 103 0;
#X connect 99 0 109 0;
#X connect 102 0 104 0;
#X connect 103 0 107 0;
#X connect 104 0 106 0;
#X connect 105 0 102 0;
#X connect 106 0 98 0;
#X connect 108 0 103 1;
#X connect 110 0 118 0;
#X connect 115 0 117 0;
#X connect 116 0 10 0;
#X connect 118 0 111 0;
#X connect 125 1 126 0;
#X connect 128 0 96 0;
#X connect 131 0 134 0;
#X connect 132 0 133 0;
#X connect 133 0 131 0;
#X connect 134 0 135 0;
#X connect 136 0 139 0;
#X connect 137 0 138 0;
#X connect 138 0 134 0;
#X connect 139 0 131 1;
#X connect 141 0 140 0;
#X coords 0 -1 1 1 160 230 2 100 100;
